<svg width="136" height="136" viewBox="0 0 136 136" fill="none" xmlns="http://www.w3.org/2000/svg">
<circle cx="68" cy="68" r="68" fill="black"/>
<path d="M23.268 80.36C31.116 80.36 34.068 76.652 34.068 70.46V55.88H28.344V70.46C28.344 73.844 27.516 75.104 23.268 75.104C18.984 75.104 18.264 73.772 18.264 70.208V69.164H12.54V70.208C12.54 76.58 15.456 80.36 23.268 80.36ZM52.2998 80C60.0398 80 64.9358 75.5 64.9358 67.94C64.9358 60.38 60.0398 55.88 52.2998 55.88H40.6718V80H52.2998ZM52.2998 60.74C57.1958 60.74 59.1758 62.144 59.1758 67.94C59.1758 73.736 57.1958 75.14 52.2998 75.14H46.0718V60.74H52.2998ZM91.2903 80V75.14H76.2783V70.28H90.7503V65.456H76.2783V60.74H91.2903V55.88H70.8783V80H91.2903ZM113.314 80L123.322 55.88H116.842L109.714 74.528H109.354L102.118 55.88H95.6018L105.61 80H113.314Z" fill="white"/>
</svg>
