<svg width="514" height="514" viewBox="0 0 514 514" fill="none" xmlns="http://www.w3.org/2000/svg">
<path d="M362.5 2.19998C367.5 4.29998 371.1 8.79998 372.1 14.1L392 122L499.9 141.8C505.2 142.8 509.7 146.4 511.8 151.4C513.9 156.4 513.3 162.1 510.2 166.6L447.9 257L510.2 347.3C513.3 351.8 513.9 357.5 511.8 362.5C509.7 367.5 505.2 371.1 499.9 372.1L392 392L372.1 499.9C371.1 505.2 367.5 509.7 362.5 511.8C357.5 513.9 351.8 513.3 347.3 510.2L257 447.9L166.7 510.2C162.2 513.3 156.5 513.9 151.5 511.8C146.5 509.7 142.9 505.2 141.9 499.9L122 392L14.1 372.1C8.80004 371.1 4.30004 367.5 2.20004 362.5C0.100037 357.5 0.700037 351.8 3.80004 347.3L66.1 257L3.80004 166.7C0.700037 162.2 0.100037 156.5 2.20004 151.5C4.30004 146.5 8.80004 142.9 14.1 141.9L122 122L141.9 14.1C142.9 8.79998 146.5 4.29998 151.5 2.19998C156.5 0.0999761 162.2 0.699976 166.7 3.79998L257 66.1L347.3 3.79998C351.8 0.699976 357.5 0.0999761 362.5 2.19998ZM161 257C161 231.539 171.114 207.121 189.118 189.118C207.121 171.114 231.539 161 257 161C282.461 161 306.879 171.114 324.882 189.118C342.886 207.121 353 231.539 353 257C353 282.461 342.886 306.879 324.882 324.882C306.879 342.886 282.461 353 257 353C231.539 353 207.121 342.886 189.118 324.882C171.114 306.879 161 282.461 161 257ZM385 257C385 223.052 371.514 190.495 347.51 166.49C323.505 142.486 290.948 129 257 129C223.052 129 190.495 142.486 166.49 166.49C142.486 190.495 129 223.052 129 257C129 290.948 142.486 323.505 166.49 347.51C190.495 371.514 223.052 385 257 385C290.948 385 323.505 371.514 347.51 347.51C371.514 323.505 385 290.948 385 257Z" fill="white"/>
</svg>
