<svg width="135" height="20" viewBox="0 0 135 20" fill="none" xmlns="http://www.w3.org/2000/svg">
<path d="M6.26 16.2C10.62 16.2 12.26 14.14 12.26 10.7V2.6H9.08V10.7C9.08 12.58 8.62 13.28 6.26 13.28C3.88 13.28 3.48 12.54 3.48 10.56V9.98H0.3V10.56C0.3 14.1 1.92 16.2 6.26 16.2ZM22.2488 16.2C26.6288 16.2 28.8288 14 28.8288 10.4V2.6H25.8288V10.18C25.8288 12.46 24.9888 13.28 22.2488 13.28C19.5288 13.28 18.6688 12.46 18.6688 10.18V2.6H15.6688V10.4C15.6688 14 17.8888 16.2 22.2488 16.2ZM35.3391 16V9.54L35.2191 7.08H35.4191L37.1191 9.6L42.0591 16H45.2591V2.6H42.2591V9.06L42.3991 11.76H42.1791L40.3391 8.94L35.5391 2.6H32.3391V16H35.3391ZM51.8508 16V2.6H48.8508V16H51.8508ZM62.3211 16.2C66.8611 16.2 69.6011 13.48 69.6011 9.3C69.6011 5.12 66.8611 2.4 62.3211 2.4C57.8811 2.4 55.1211 5.12 55.1211 9.3C55.1211 13.48 57.8811 16.2 62.3211 16.2ZM62.3211 13.32C59.3811 13.32 58.3011 12.28 58.3011 9.3C58.3011 6.32 59.3811 5.28 62.3211 5.28C65.2611 5.28 66.4011 6.32 66.4011 9.3C66.4011 12.28 65.2611 13.32 62.3211 13.32ZM75.9094 16V11.14H77.8894C79.4494 11.14 79.9494 11.48 80.4894 12.52L82.3294 16H85.8094L83.8694 12.4C83.3694 11.46 82.9094 10.82 81.7094 10.5V10.34C84.2294 10.1 85.4894 8.8 85.4894 6.62C85.4894 4.06 83.6094 2.6 80.3094 2.6H72.9094V16H75.9094ZM75.9094 5.3H80.2894C81.7094 5.3 82.3494 5.76 82.3494 7.08C82.3494 8.48 81.7094 8.88 80.2894 8.88H75.9094V5.3Z" fill="white"/>
<path d="M88.96 2.6V2.35H88.71V2.6H88.96ZM88.96 16H88.71V16.25H88.96V16ZM91.96 13.3H91.71V13.55H91.96V13.3ZM91.96 5.3V5.05H91.71V5.3H91.96ZM95.42 16.25C97.6177 16.25 99.4397 15.6105 100.714 14.4067C101.99 13.2012 102.69 11.4557 102.69 9.3H102.19C102.19 11.3443 101.53 12.9488 100.371 14.0433C99.2103 15.1395 97.5223 15.75 95.42 15.75V16.25ZM102.69 9.3C102.69 7.1443 101.99 5.39877 100.714 4.19326C99.4397 2.98947 97.6177 2.35 95.42 2.35V2.85C97.5223 2.85 99.2103 3.46053 100.371 4.55674C101.53 5.65123 102.19 7.2557 102.19 9.3H102.69ZM95.42 2.35H88.96V2.85H95.42V2.35ZM88.71 2.6V16H89.21V2.6H88.71ZM88.96 16.25H95.42V15.75H88.96V16.25ZM95.42 5.55C96.7722 5.55 97.6367 5.74802 98.1758 6.27181C98.7139 6.79461 98.99 7.70351 98.99 9.3H99.49C99.49 7.67649 99.2161 6.58539 98.5242 5.91319C97.8333 5.24198 96.7878 5.05 95.42 5.05V5.55ZM98.99 9.3C98.99 10.8965 98.7139 11.8054 98.1758 12.3282C97.6367 12.852 96.7722 13.05 95.42 13.05V13.55C96.7878 13.55 97.8333 13.358 98.5242 12.6868C99.2161 12.0146 99.49 10.9235 99.49 9.3H98.99ZM95.42 13.05H91.96V13.55H95.42V13.05ZM92.21 13.3V5.3H91.71V13.3H92.21ZM91.96 5.55H95.42V5.05H91.96V5.55ZM117.081 16V16.25H117.331V16H117.081ZM117.081 13.3H117.331V13.05H117.081V13.3ZM108.741 13.3H108.491V13.55H108.741V13.3ZM108.741 10.6V10.35H108.491V10.6H108.741ZM116.781 10.6V10.85H117.031V10.6H116.781ZM116.781 7.92H117.031V7.67H116.781V7.92ZM108.741 7.92H108.491V8.17H108.741V7.92ZM108.741 5.3V5.05H108.491V5.3H108.741ZM117.081 5.3V5.55H117.331V5.3H117.081ZM117.081 2.6H117.331V2.35H117.081V2.6ZM105.741 2.6V2.35H105.491V2.6H105.741ZM105.741 16H105.491V16.25H105.741V16ZM117.331 16V13.3H116.831V16H117.331ZM117.081 13.05H108.741V13.55H117.081V13.05ZM108.991 13.3V10.6H108.491V13.3H108.991ZM108.741 10.85H116.781V10.35H108.741V10.85ZM117.031 10.6V7.92H116.531V10.6H117.031ZM116.781 7.67H108.741V8.17H116.781V7.67ZM108.991 7.92V5.3H108.491V7.92H108.991ZM108.741 5.55H117.081V5.05H108.741V5.55ZM117.331 5.3V2.6H116.831V5.3H117.331ZM117.081 2.35H105.741V2.85H117.081V2.35ZM105.491 2.6V16H105.991V2.6H105.491ZM105.741 16.25H117.081V15.75H105.741V16.25ZM129.317 16V16.25H129.484L129.548 16.0958L129.317 16ZM134.877 2.6L135.108 2.69581L135.251 2.35H134.877V2.6ZM131.277 2.6V2.35H131.105L131.043 2.51074L131.277 2.6ZM127.317 12.96V13.21H127.489L127.55 13.0493L127.317 12.96ZM127.117 12.96L126.884 13.0504L126.946 13.21H127.117V12.96ZM123.097 2.6L123.33 2.50956L123.268 2.35H123.097V2.6ZM119.477 2.6V2.35H119.102L119.246 2.69581L119.477 2.6ZM125.037 16L124.806 16.0958L124.87 16.25H125.037V16ZM129.548 16.0958L135.108 2.69581L134.646 2.50419L129.086 15.9042L129.548 16.0958ZM134.877 2.35H131.277V2.85H134.877V2.35ZM131.043 2.51074L127.083 12.8707L127.55 13.0493L131.51 2.68926L131.043 2.51074ZM127.317 12.71H127.117V13.21H127.317V12.71ZM127.35 12.8696L123.33 2.50956L122.864 2.69044L126.884 13.0504L127.35 12.8696ZM123.097 2.35H119.477V2.85H123.097V2.35ZM119.246 2.69581L124.806 16.0958L125.268 15.9042L119.708 2.50419L119.246 2.69581ZM125.037 16.25H129.317V15.75H125.037V16.25Z" fill="white"/>
</svg>
