<svg width="139" height="18" viewBox="0 0 139 18" fill="none" xmlns="http://www.w3.org/2000/svg">
<path d="M97.664 17C102.656 17 105.8 13.928 105.8 8.96004C105.8 3.99204 102.656 0.920044 97.664 0.920044H90.344V17H97.664ZM97.664 3.24804C101.384 3.24804 103.064 4.83204 103.064 8.96004C103.064 13.088 101.384 14.672 97.664 14.672H92.912V3.24804H97.664Z" fill="white"/>
<path d="M120.595 17V14.672H110.323V10.064H120.235V7.76004H110.323V3.24804H120.595V0.920044H107.731V17H120.595Z" fill="white"/>
<path d="M131.83 17L138.694 0.920044H135.646L130.126 14.384H129.934L124.366 0.920044H121.294L128.158 17H131.83Z" fill="white"/>
<path d="M7.24798 17.2401C12.168 17.2401 14.04 14.6961 14.04 11.0001V0.920053H11.328V11.0241C11.328 13.5681 10.392 14.7441 7.24798 14.7441C4.10398 14.7441 3.21598 13.5441 3.21598 10.9041V10.1361H0.47998V10.8801C0.47998 14.6721 2.37598 17.2401 7.24798 17.2401ZM23.7806 17.2401C28.6046 17.2401 31.3406 14.6961 31.3406 10.3281V0.920053H28.7486V10.1601C28.7486 13.4001 27.3086 14.7441 23.7806 14.7441C20.2526 14.7441 18.8126 13.4001 18.8126 10.1601V0.920053H16.2446V10.3281C16.2446 14.6961 18.9806 17.2401 23.7806 17.2401ZM36.2295 17.0001V7.56805L36.1335 4.78405H36.3255L38.3415 7.61605L45.5895 17.0001H48.3735V0.920053H45.7815V10.4241L45.9015 13.3281H45.7095L43.6215 10.3281L36.4215 0.920053H33.6375V17.0001H36.2295ZM53.3623 17.0001V0.920053H50.7703V17.0001H53.3623ZM63.6585 17.2401C68.7465 17.2401 72.0585 13.9761 72.0585 8.96005C72.0585 3.94405 68.7465 0.680054 63.6585 0.680054C58.6185 0.680054 55.2825 3.94405 55.2825 8.96005C55.2825 13.9761 58.6185 17.2401 63.6585 17.2401ZM63.6585 14.7441C59.8425 14.7441 58.0185 12.9681 58.0185 8.96005C58.0185 4.95205 59.8425 3.15205 63.6585 3.15205C67.4745 3.15205 69.3225 4.95205 69.3225 8.96005C69.3225 12.9681 67.4745 14.7441 63.6585 14.7441ZM76.5654 17.0001V10.7601H79.5174C81.5334 10.7601 82.2774 11.2881 82.9974 12.5601L85.5654 17.0001H88.5414L85.8534 12.3441C85.2774 11.3361 84.7014 10.6161 83.4534 10.2801V10.1121C86.4774 9.94405 88.2294 8.31205 88.2294 5.64805C88.2294 2.64805 85.9734 0.920053 82.3254 0.920053H73.9734V17.0001H76.5654ZM76.5654 3.24805H82.3014C84.4614 3.24805 85.5414 4.04005 85.5414 6.00805C85.5414 8.02405 84.4614 8.76805 82.3014 8.76805H76.5654V3.24805Z" stroke="white" stroke-width="0.5"/>
</svg>
