<svg width="181" height="60" viewBox="0 0 181 60" fill="none" xmlns="http://www.w3.org/2000/svg">
<path d="M77.2376 31.526C77.2376 39.9236 70.5715 46.1117 62.3906 46.1117C54.2098 46.1117 47.5437 39.9236 47.5437 31.526C47.5437 23.0691 54.2098 16.9402 62.3906 16.9402C70.5715 16.9402 77.2376 23.0691 77.2376 31.526ZM70.7383 31.526C70.7383 26.2783 66.8747 22.6877 62.3906 22.6877C57.9065 22.6877 54.043 26.2783 54.043 31.526C54.043 36.7211 57.9065 40.3642 62.3906 40.3642C66.8747 40.3642 70.7383 36.7145 70.7383 31.526Z" fill="#EA4335"/>
<path d="M109.267 31.526C109.267 39.9236 102.601 46.1117 94.42 46.1117C86.2392 46.1117 79.573 39.9236 79.573 31.526C79.573 23.0757 86.2392 16.9402 94.42 16.9402C102.601 16.9402 109.267 23.0691 109.267 31.526ZM102.768 31.526C102.768 26.2783 98.9041 22.6877 94.42 22.6877C89.9359 22.6877 86.0723 26.2783 86.0723 31.526C86.0723 36.7211 89.9359 40.3642 94.42 40.3642C98.9041 40.3642 102.768 36.7145 102.768 31.526Z" fill="#FBBC05"/>
<path d="M139.962 17.8214V44.0074C139.962 54.779 133.516 59.1784 125.896 59.1784C118.722 59.1784 114.405 54.4502 112.777 50.5835L118.435 48.2621C119.443 50.6361 121.912 53.4375 125.889 53.4375C130.767 53.4375 133.789 50.4717 133.789 44.8886V42.7908H133.563C132.108 44.5598 129.305 46.1052 125.769 46.1052C118.369 46.1052 111.589 39.7527 111.589 31.5786C111.589 23.3453 118.369 16.9402 125.769 16.9402C129.299 16.9402 132.101 18.4856 133.563 20.202H133.789V17.828H139.962V17.8214ZM134.25 31.5786C134.25 26.4427 130.773 22.6877 126.349 22.6877C121.865 22.6877 118.108 26.4427 118.108 31.5786C118.108 36.6619 121.865 40.3642 126.349 40.3642C130.773 40.3642 134.25 36.6619 134.25 31.5786Z" fill="#4285F4"/>
<path d="M150.138 2.47277V45.2173H143.799V2.47277H150.138Z" fill="#34A853"/>
<path d="M174.841 36.3265L179.885 39.6408C178.257 42.0148 174.334 46.1051 167.554 46.1051C159.146 46.1051 152.867 39.7 152.867 31.5194C152.867 22.8455 159.2 16.9336 166.827 16.9336C174.507 16.9336 178.264 22.9573 179.492 26.2125L180.166 27.8696L160.381 35.9451C161.896 38.8714 164.251 40.3642 167.554 40.3642C170.864 40.3642 173.159 38.7596 174.841 36.3265ZM159.313 31.0788L172.539 25.6666C171.811 23.8451 169.623 22.5759 167.047 22.5759C163.744 22.5759 159.146 25.4496 159.313 31.0788Z" fill="#EA4335"/>
<path d="M23.5485 27.7316V21.5435H44.708C44.9148 22.622 45.0216 23.8977 45.0216 25.2787C45.0216 29.9214 43.7337 35.6623 39.5833 39.7527C35.5462 43.8956 30.3882 46.1052 23.5552 46.1052C10.8903 46.1052 0.240479 35.9385 0.240479 23.4571C0.240479 10.9757 10.8903 0.809082 23.5552 0.809082C30.5617 0.809082 35.5529 3.51843 39.303 7.04979L34.8723 11.4163C32.1831 8.93055 28.5398 6.99718 23.5485 6.99718C14.3001 6.99718 7.06675 14.3427 7.06675 23.4571C7.06675 32.5716 14.3001 39.9171 23.5485 39.9171C29.5474 39.9171 32.9639 37.5431 35.1525 35.3861C36.9275 33.6369 38.0952 31.138 38.5557 27.725L23.5485 27.7316Z" fill="#4285F4"/>
</svg>
