<svg width="181" height="59" viewBox="0 0 181 59" fill="none" xmlns="http://www.w3.org/2000/svg">
<path d="M77.2376 31.0262C77.2376 39.4239 70.5715 45.6119 62.3907 45.6119C54.2098 45.6119 47.5437 39.4239 47.5437 31.0262C47.5437 22.5693 54.2098 16.4404 62.3907 16.4404C70.5715 16.4404 77.2376 22.5693 77.2376 31.0262ZM70.7383 31.0262C70.7383 25.7785 66.8748 22.1879 62.3907 22.1879C57.9065 22.1879 54.043 25.7785 54.043 31.0262C54.043 36.2213 57.9065 39.8644 62.3907 39.8644C66.8748 39.8644 70.7383 36.2147 70.7383 31.0262Z" fill="#E3E4E6" fill-opacity="0.55"/>
<path d="M109.267 31.0262C109.267 39.4239 102.601 45.6119 94.42 45.6119C86.2391 45.6119 79.573 39.4239 79.573 31.0262C79.573 22.5759 86.2391 16.4404 94.42 16.4404C102.601 16.4404 109.267 22.5693 109.267 31.0262ZM102.768 31.0262C102.768 25.7785 98.9041 22.1879 94.42 22.1879C89.9358 22.1879 86.0723 25.7785 86.0723 31.0262C86.0723 36.2213 89.9358 39.8644 94.42 39.8644C98.9041 39.8644 102.768 36.2147 102.768 31.0262Z" fill="#E3E4E6" fill-opacity="0.55"/>
<path d="M139.962 17.3216V43.5076C139.962 54.2792 133.516 58.6786 125.896 58.6786C118.722 58.6786 114.405 53.9504 112.777 50.0837L118.435 47.7623C119.443 50.1363 121.912 52.9377 125.889 52.9377C130.767 52.9377 133.79 49.9719 133.79 44.3888V42.291H133.563C132.108 44.06 129.305 45.6054 125.769 45.6054C118.369 45.6054 111.589 39.2529 111.589 31.0788C111.589 22.8455 118.369 16.4404 125.769 16.4404C129.299 16.4404 132.101 17.9858 133.563 19.7022H133.79V17.3282H139.962V17.3216ZM134.25 31.0788C134.25 25.9429 130.773 22.1879 126.349 22.1879C121.865 22.1879 118.108 25.9429 118.108 31.0788C118.108 36.1621 121.865 39.8644 126.349 39.8644C130.773 39.8644 134.25 36.1621 134.25 31.0788Z" fill="#E3E4E6" fill-opacity="0.55"/>
<path d="M150.138 1.97266V44.7172H143.799V1.97266H150.138Z" fill="#E3E4E6" fill-opacity="0.55"/>
<path d="M174.841 35.8265L179.885 39.1408C178.257 41.5148 174.334 45.6051 167.554 45.6051C159.146 45.6051 152.867 39.2 152.867 31.0194C152.867 22.3455 159.2 16.4336 166.827 16.4336C174.507 16.4336 178.264 22.4573 179.492 25.7125L180.166 27.3696L160.381 35.4451C161.895 38.3714 164.251 39.8642 167.554 39.8642C170.864 39.8642 173.159 38.2596 174.841 35.8265ZM159.313 30.5788L172.539 25.1666C171.811 23.3451 169.623 22.0759 167.047 22.0759C163.744 22.0759 159.146 24.9496 159.313 30.5788Z" fill="#E3E4E6" fill-opacity="0.55"/>
<path d="M23.5485 27.2316V21.0435H44.708C44.9148 22.122 45.0216 23.3977 45.0216 24.7787C45.0216 29.4214 43.7337 35.1623 39.5833 39.2527C35.5462 43.3956 30.3882 45.6052 23.5552 45.6052C10.8903 45.6052 0.240479 35.4385 0.240479 22.9571C0.240479 10.4757 10.8903 0.309082 23.5552 0.309082C30.5617 0.309082 35.5529 3.01843 39.303 6.54979L34.8723 10.9163C32.1831 8.43055 28.5398 6.49718 23.5485 6.49718C14.3001 6.49718 7.06675 13.8427 7.06675 22.9571C7.06675 32.0716 14.3001 39.4171 23.5485 39.4171C29.5474 39.4171 32.9639 37.0431 35.1525 34.8861C36.9275 33.1369 38.0952 30.638 38.5557 27.225L23.5485 27.2316Z" fill="#E3E4E6" fill-opacity="0.55"/>
</svg>
