<svg width="264" height="57" viewBox="0 0 264 57" fill="none" xmlns="http://www.w3.org/2000/svg">
<path d="M93.0481 32.3571L91.4769 36.7991H91.346C91.0841 35.7975 90.604 34.2733 89.8184 32.4442L81.3952 11.3228H73.1466V44.9864H78.602V24.2134C78.602 22.9069 78.602 21.4262 78.5584 19.5972C78.5148 18.6826 78.4275 17.9859 78.3838 17.4633H78.5148C78.7766 18.7697 79.0821 19.7278 79.3003 20.3375L89.4256 44.8993H93.2663L103.304 20.1198C103.523 19.5536 103.741 18.4213 103.959 17.4633H104.09C103.959 19.9456 103.872 22.1666 103.828 23.5166V44.8558H109.633V11.2357H101.689L93.0481 32.3571ZM115.132 20.7295H120.805V44.8558H115.132V20.7295ZM118.012 10.5389C117.052 10.5389 116.266 10.8873 115.612 11.497C114.957 12.1067 114.608 12.8906 114.608 13.8487C114.608 14.7632 114.957 15.5471 115.612 16.1568C116.266 16.7665 117.052 17.0713 118.012 17.0713C118.972 17.0713 119.802 16.7229 120.413 16.1568C121.067 15.5471 121.416 14.7632 121.416 13.8487C121.416 12.9341 121.067 12.1502 120.413 11.497C119.845 10.8873 119.016 10.5389 118.012 10.5389ZM140.925 20.5117C139.878 20.294 138.787 20.1633 137.739 20.1633C135.164 20.1633 132.807 20.7295 130.843 21.8617C128.879 22.994 127.308 24.5618 126.304 26.5215C125.257 28.5248 124.733 30.8329 124.733 33.4894C124.733 35.7975 125.257 37.8443 126.261 39.7169C127.265 41.546 128.661 43.0267 130.538 44.0283C132.327 45.03 134.422 45.5525 136.779 45.5525C139.485 45.5525 141.798 44.9864 143.631 43.9412L143.675 43.8977V38.6718L143.456 38.846C142.627 39.4556 141.667 39.9782 140.707 40.2831C139.703 40.6315 138.787 40.8057 138.001 40.8057C135.731 40.8057 133.942 40.1524 132.676 38.7153C131.367 37.3217 130.712 35.4056 130.712 33.0104C130.712 30.528 131.367 28.5683 132.72 27.1312C134.073 25.6941 135.862 24.9537 138.045 24.9537C139.878 24.9537 141.754 25.5634 143.456 26.7828L143.675 26.957V21.4262L143.631 21.3827C142.889 21.0778 142.06 20.7295 140.925 20.5117ZM159.648 20.3375C158.252 20.3375 156.942 20.773 155.807 21.6875C154.847 22.4714 154.193 23.6037 153.625 24.9537H153.582V20.7295H147.908V44.8558H153.582V32.5313C153.582 30.4409 154.018 28.699 154.978 27.436C155.938 26.1296 157.16 25.4763 158.644 25.4763C159.168 25.4763 159.692 25.607 160.346 25.6941C160.957 25.8683 161.394 26.0425 161.699 26.2602L161.918 26.4344V20.773L161.787 20.7295C161.394 20.4682 160.608 20.3375 159.648 20.3375ZM175.098 20.2069C171.126 20.2069 167.94 21.3827 165.715 23.6908C163.445 25.9989 162.354 29.178 162.354 33.1845C162.354 36.9298 163.489 39.9782 165.671 42.1992C167.853 44.3767 170.821 45.509 174.531 45.509C178.415 45.509 181.514 44.3332 183.739 41.9815C186.009 39.6298 187.1 36.4943 187.1 32.6184C187.1 28.7861 186.052 25.7376 183.914 23.5166C181.863 21.2956 178.851 20.2069 175.098 20.2069ZM179.637 38.7589C178.589 40.1089 176.931 40.7621 174.88 40.7621C172.828 40.7621 171.17 40.1089 169.992 38.6718C168.813 37.3217 168.246 35.362 168.246 32.8797C168.246 30.3103 168.857 28.3506 169.992 26.957C171.17 25.5634 172.785 24.8666 174.836 24.8666C176.844 24.8666 178.415 25.5199 179.55 26.8699C180.684 28.2199 181.295 30.1796 181.295 32.7491C181.208 35.362 180.728 37.4088 179.637 38.7589ZM199.757 30.7458C197.967 30.0055 196.832 29.4393 196.309 28.9603C195.872 28.5248 195.654 27.9151 195.654 27.1312C195.654 26.478 195.916 25.8247 196.571 25.3892C197.225 24.9537 197.967 24.736 199.058 24.736C200.018 24.736 201.022 24.9102 201.982 25.1715C202.943 25.4328 203.815 25.8247 204.514 26.3473L204.732 26.5215V21.2085L204.601 21.1649C203.946 20.9037 203.073 20.6424 202.026 20.4246C200.979 20.2504 200.018 20.1633 199.233 20.1633C196.527 20.1633 194.301 20.8166 192.555 22.2537C190.81 23.6037 189.98 25.4328 189.98 27.5667C189.98 28.699 190.155 29.7006 190.548 30.528C190.941 31.3555 191.508 32.1394 192.294 32.7926C193.079 33.4023 194.214 34.0991 195.785 34.7523C197.094 35.3185 198.098 35.754 198.709 36.1024C199.32 36.4507 199.713 36.8427 200.018 37.1475C200.237 37.4959 200.368 37.9314 200.368 38.4976C200.368 40.1089 199.146 40.8928 196.658 40.8928C195.698 40.8928 194.694 40.7186 193.516 40.3266C192.337 39.9347 191.246 39.3685 190.33 38.7153L190.111 38.5411V44.0719L190.242 44.1154C191.072 44.5074 192.075 44.7687 193.297 45.0735C194.519 45.2912 195.61 45.4654 196.571 45.4654C199.495 45.4654 201.895 44.8122 203.597 43.3751C205.343 41.9815 206.259 40.196 206.259 37.8879C206.259 36.2765 205.823 34.8394 204.863 33.7507C203.597 32.7055 202.026 31.6168 199.757 30.7458ZM221.229 20.2069C217.258 20.2069 214.072 21.3827 211.846 23.6908C209.62 25.9989 208.485 29.178 208.485 33.1845C208.485 36.9298 209.62 39.9782 211.802 42.1992C213.984 44.3767 216.952 45.509 220.662 45.509C224.546 45.509 227.645 44.3332 229.871 41.9815C232.14 39.6298 233.231 36.4943 233.231 32.6184C233.231 28.7861 232.184 25.7376 230.045 23.5166C227.994 21.2956 224.983 20.2069 221.229 20.2069ZM225.724 38.7589C224.677 40.1089 223.019 40.7621 220.967 40.7621C218.872 40.7621 217.258 40.1089 216.079 38.6718C214.901 37.3217 214.334 35.362 214.334 32.8797C214.334 30.3103 214.945 28.3506 216.079 26.957C217.258 25.5634 218.872 24.8666 220.924 24.8666C222.888 24.8666 224.502 25.5199 225.637 26.8699C226.772 28.2199 227.383 30.1796 227.383 32.7491C227.383 35.362 226.816 37.4088 225.724 38.7589ZM263.563 25.3892V20.7295H257.846V13.5874L257.672 13.6309L252.26 15.2422L252.129 15.2858V20.7295H243.575V17.681C243.575 16.2874 243.924 15.1987 244.535 14.5019C245.146 13.8051 246.062 13.4567 247.197 13.4567C247.983 13.4567 248.812 13.6309 249.728 14.0229L249.947 14.1535V9.23245L249.816 9.1889C249.03 8.9276 247.983 8.7534 246.63 8.7534C244.928 8.7534 243.444 9.14535 242.091 9.79859C240.738 10.5389 239.734 11.5406 238.992 12.8906C238.25 14.1971 237.857 15.6777 237.857 17.3762V20.7295H233.886V25.3457H237.857V44.8558H243.575V25.3892H252.129V37.8008C252.129 42.896 254.529 45.4654 259.33 45.4654C260.116 45.4654 260.945 45.3348 261.73 45.2042C262.56 45.03 263.171 44.8122 263.52 44.638L263.563 44.5945V39.9347L263.345 40.1089C262.996 40.3266 262.691 40.5008 262.167 40.6315C261.73 40.7621 261.338 40.8057 261.032 40.8057C259.897 40.8057 259.112 40.5444 258.544 39.8911C258.021 39.2814 257.759 38.2798 257.759 36.7991V25.3892H263.563Z" fill="#E3E4E6" fill-opacity="0.55"/>
<path d="M0 1.81036e-05H26.7535V26.6957H0V1.81036e-05Z" fill="#E3E4E6" fill-opacity="0.55"/>
<path d="M29.5465 0H56.3V26.6957H29.5465V0Z" fill="#E3E4E6" fill-opacity="0.55"/>
<path d="M9.04778e-06 29.4829H26.7535V56.1786H9.04778e-06V29.4829Z" fill="#E3E4E6" fill-opacity="0.55"/>
<path d="M29.5465 29.4829H56.3V56.1786H29.5465V29.4829Z" fill="#E3E4E6" fill-opacity="0.55"/>
</svg>
